<?xml version="1.0" encoding="UTF-8" standalone="no"?>
<!DOCTYPE svg PUBLIC "-//W3C//DTD SVG 1.1//EN"
 "http://www.w3.org/Graphics/SVG/1.1/DTD/svg11.dtd">
<!-- Generated by graphviz version 8.1.0 (20230707.0739)
 -->
<!-- Title: Model Pages: 1 -->
<svg width="596pt" height="447pt"
 viewBox="0.00 0.00 595.88 447.00" xmlns="http://www.w3.org/2000/svg" xmlns:xlink="http://www.w3.org/1999/xlink">
<g id="graph0" class="graph" transform="scale(1 1) rotate(0) translate(4 443)">
<title>Model</title>
<polygon fill="white" stroke="none" points="-4,4 -4,-443 591.88,-443 591.88,4 -4,4"/>
<!-- node0 -->
<g id="node1" class="node">
<title>node0</title>
<path fill="none" stroke="black" d="M575.88,-201C575.88,-201 298.12,-201 298.12,-201 292.12,-201 286.12,-195 286.12,-189 286.12,-189 286.12,-177 286.12,-177 286.12,-171 292.12,-165 298.12,-165 298.12,-165 575.88,-165 575.88,-165 581.88,-165 587.88,-171 587.88,-177 587.88,-177 587.88,-189 587.88,-189 587.88,-195 581.88,-201 575.88,-201"/>
<text text-anchor="middle" x="437" y="-179.12" font-family="Times New Roman,serif" font-size="10.00" fill="#0000ff">DialogueCPT[AllEvents[NCases]][AllTraits[NCases]][AllRels[NCases]]</text>
</g>
<!-- node1 -->
<g id="node2" class="node">
<title>node1</title>
<path fill="#000000" stroke="black" d="M407,-118.5C407,-118.5 377,-118.5 377,-118.5 371,-118.5 365,-112.5 365,-106.5 365,-106.5 365,-94.5 365,-94.5 365,-88.5 371,-82.5 377,-82.5 377,-82.5 407,-82.5 407,-82.5 413,-82.5 419,-88.5 419,-94.5 419,-94.5 419,-106.5 419,-106.5 419,-112.5 413,-118.5 407,-118.5"/>
<text text-anchor="middle" x="392" y="-98.15" font-family="Times New Roman,serif" font-size="8.00" fill="#ffffff">Discrete</text>
</g>
<!-- node0&#45;&gt;node1 -->
<g id="edge1" class="edge">
<title>node0&#45;&gt;node1</title>
<path fill="none" stroke="black" d="M427.24,-164.53C421.34,-153.98 413.7,-140.32 407.05,-128.42"/>
<polygon fill="black" stroke="black" points="409.68,-126.95 401.75,-119.93 403.57,-130.37 409.68,-126.95"/>
<text text-anchor="middle" x="427.38" y="-139.4" font-family="Times New Roman,serif" font-size="8.00" fill="#d3d3d3">probs</text>
</g>
<!-- node2 -->
<g id="node3" class="node">
<title>node2</title>
<path fill="none" stroke="black" d="M240.88,-36C240.88,-36 155.12,-36 155.12,-36 149.12,-36 143.12,-30 143.12,-24 143.12,-24 143.12,-12 143.12,-12 143.12,-6 149.12,0 155.12,0 155.12,0 240.88,0 240.88,0 246.88,0 252.88,-6 252.88,-12 252.88,-12 252.88,-24 252.88,-24 252.88,-30 246.88,-36 240.88,-36"/>
<text text-anchor="middle" x="198" y="-14.12" font-family="Times New Roman,serif" font-size="10.00" fill="#0000ff">DialogueChild[NCases]</text>
</g>
<!-- node1&#45;&gt;node2 -->
<g id="edge2" class="edge">
<title>node1&#45;&gt;node2</title>
<path fill="none" stroke="black" d="M364.62,-88.14C334.92,-75.82 286.84,-55.86 249.94,-40.55"/>
<polygon fill="black" stroke="black" points="251.43,-36.97 240.86,-36.37 248.75,-43.43 251.43,-36.97"/>
</g>
<!-- node3 -->
<g id="node4" class="node">
<title>node3</title>
<path fill="none" stroke="none" d="M70,-118.5C70,-118.5 12,-118.5 12,-118.5 6,-118.5 0,-112.5 0,-106.5 0,-106.5 0,-94.5 0,-94.5 0,-88.5 6,-82.5 12,-82.5 12,-82.5 70,-82.5 70,-82.5 76,-82.5 82,-88.5 82,-94.5 82,-94.5 82,-106.5 82,-106.5 82,-112.5 76,-118.5 70,-118.5"/>
<text text-anchor="middle" x="41" y="-96.62" font-family="Times New Roman,serif" font-size="10.00" fill="#0000ff">AllRels[NCases]</text>
</g>
<!-- node3&#45;&gt;node2 -->
<g id="edge3" class="edge">
<title>node3&#45;&gt;node2</title>
<path fill="none" stroke="black" d="M73.91,-82.62C97.25,-70.66 128.81,-54.47 154.27,-41.42"/>
<polygon fill="black" stroke="black" points="155.75,-44.09 163.05,-36.41 152.55,-37.86 155.75,-44.09"/>
<text text-anchor="middle" x="145.5" y="-56.9" font-family="Times New Roman,serif" font-size="8.00" fill="#d3d3d3">condition</text>
</g>
<!-- node4 -->
<g id="node5" class="node">
<title>node4</title>
<path fill="none" stroke="black" d="M176,-118.5C176,-118.5 112,-118.5 112,-118.5 106,-118.5 100,-112.5 100,-106.5 100,-106.5 100,-94.5 100,-94.5 100,-88.5 106,-82.5 112,-82.5 112,-82.5 176,-82.5 176,-82.5 182,-82.5 188,-88.5 188,-94.5 188,-94.5 188,-106.5 188,-106.5 188,-112.5 182,-118.5 176,-118.5"/>
<text text-anchor="middle" x="144" y="-96.62" font-family="Times New Roman,serif" font-size="10.00" fill="#0000ff">AllTraits[NCases]</text>
</g>
<!-- node4&#45;&gt;node2 -->
<g id="edge4" class="edge">
<title>node4&#45;&gt;node2</title>
<path fill="none" stroke="black" d="M155.72,-82.03C162.86,-71.38 172.14,-57.55 180.18,-45.56"/>
<polygon fill="black" stroke="black" points="183.64,-47.69 186.31,-37.43 177.83,-43.79 183.64,-47.69"/>
<text text-anchor="middle" x="191.5" y="-56.9" font-family="Times New Roman,serif" font-size="8.00" fill="#d3d3d3">condition</text>
</g>
<!-- node5 -->
<g id="node6" class="node">
<title>node5</title>
<path fill="none" stroke="black" d="M286.25,-118.5C286.25,-118.5 217.75,-118.5 217.75,-118.5 211.75,-118.5 205.75,-112.5 205.75,-106.5 205.75,-106.5 205.75,-94.5 205.75,-94.5 205.75,-88.5 211.75,-82.5 217.75,-82.5 217.75,-82.5 286.25,-82.5 286.25,-82.5 292.25,-82.5 298.25,-88.5 298.25,-94.5 298.25,-94.5 298.25,-106.5 298.25,-106.5 298.25,-112.5 292.25,-118.5 286.25,-118.5"/>
<text text-anchor="middle" x="252" y="-96.62" font-family="Times New Roman,serif" font-size="10.00" fill="#0000ff">AllEvents[NCases]</text>
</g>
<!-- node5&#45;&gt;node2 -->
<g id="edge5" class="edge">
<title>node5&#45;&gt;node2</title>
<path fill="none" stroke="black" d="M240.28,-82.03C233.14,-71.38 223.86,-57.55 215.82,-45.56"/>
<polygon fill="black" stroke="black" points="218.17,-43.79 209.69,-37.43 212.36,-47.69 218.17,-43.79"/>
<text text-anchor="middle" x="245.5" y="-56.9" font-family="Times New Roman,serif" font-size="8.00" fill="#d3d3d3">condition</text>
</g>
<!-- node6 -->
<g id="node7" class="node">
<title>node6</title>
<path fill="none" stroke="black" d="M267.75,-283.5C267.75,-283.5 214.25,-283.5 214.25,-283.5 208.25,-283.5 202.25,-277.5 202.25,-271.5 202.25,-271.5 202.25,-259.5 202.25,-259.5 202.25,-253.5 208.25,-247.5 214.25,-247.5 214.25,-247.5 267.75,-247.5 267.75,-247.5 273.75,-247.5 279.75,-253.5 279.75,-259.5 279.75,-259.5 279.75,-271.5 279.75,-271.5 279.75,-277.5 273.75,-283.5 267.75,-283.5"/>
<text text-anchor="middle" x="241" y="-261.62" font-family="Times New Roman,serif" font-size="10.00" fill="#0000ff">PossibleEvents</text>
</g>
<!-- node7 -->
<g id="node8" class="node">
<title>node7</title>
<path fill="#000000" stroke="black" d="M256,-201C256,-201 226,-201 226,-201 220,-201 214,-195 214,-189 214,-189 214,-177 214,-177 214,-171 220,-165 226,-165 226,-165 256,-165 256,-165 262,-165 268,-171 268,-177 268,-177 268,-189 268,-189 268,-195 262,-201 256,-201"/>
<text text-anchor="middle" x="241" y="-180.65" font-family="Times New Roman,serif" font-size="8.00" fill="#ffffff">Discrete</text>
</g>
<!-- node6&#45;&gt;node7 -->
<g id="edge6" class="edge">
<title>node6&#45;&gt;node7</title>
<path fill="none" stroke="black" d="M241,-247.03C241,-236.91 241,-223.91 241,-212.35"/>
<polygon fill="black" stroke="black" points="244.5,-212.43 241,-202.43 237.5,-212.43 244.5,-212.43"/>
<text text-anchor="middle" x="250.38" y="-221.9" font-family="Times New Roman,serif" font-size="8.00" fill="#d3d3d3">probs</text>
</g>
<!-- node7&#45;&gt;node5 -->
<g id="edge7" class="edge">
<title>node7&#45;&gt;node5</title>
<path fill="none" stroke="black" d="M243.39,-164.53C244.79,-154.3 246.58,-141.14 248.18,-129.49"/>
<polygon fill="black" stroke="black" points="251.73,-130.32 249.62,-119.93 244.8,-129.37 251.73,-130.32"/>
</g>
<!-- node8 -->
<g id="node9" class="node">
<title>node8</title>
<path fill="none" stroke="none" d="M262.5,-439C262.5,-439 219.5,-439 219.5,-439 213.5,-439 207.5,-433 207.5,-427 207.5,-427 207.5,-415 207.5,-415 207.5,-409 213.5,-403 219.5,-403 219.5,-403 262.5,-403 262.5,-403 268.5,-403 274.5,-409 274.5,-415 274.5,-415 274.5,-427 274.5,-427 274.5,-433 268.5,-439 262.5,-439"/>
<text text-anchor="middle" x="241" y="-417.12" font-family="Times New Roman,serif" font-size="10.00" fill="#0000ff">EventsPriors</text>
</g>
<!-- node9 -->
<g id="node10" class="node">
<title>node9</title>
<path fill="#000000" stroke="black" d="M256,-356.5C256,-356.5 226,-356.5 226,-356.5 220,-356.5 214,-350.5 214,-344.5 214,-344.5 214,-332.5 214,-332.5 214,-326.5 220,-320.5 226,-320.5 226,-320.5 256,-320.5 256,-320.5 262,-320.5 268,-326.5 268,-332.5 268,-332.5 268,-344.5 268,-344.5 268,-350.5 262,-356.5 256,-356.5"/>
<text text-anchor="middle" x="241" y="-336.15" font-family="Times New Roman,serif" font-size="8.00" fill="#ffffff">Random</text>
</g>
<!-- node8&#45;&gt;node9 -->
<g id="edge8" class="edge">
<title>node8&#45;&gt;node9</title>
<path fill="none" stroke="black" d="M241,-403.32C241,-393.06 241,-379.64 241,-367.76"/>
<polygon fill="black" stroke="black" points="244.5,-367.99 241,-357.99 237.5,-367.99 244.5,-367.99"/>
<text text-anchor="middle" x="247" y="-377.4" font-family="Times New Roman,serif" font-size="8.00" fill="#d3d3d3">dist</text>
</g>
<!-- node9&#45;&gt;node6 -->
<g id="edge9" class="edge">
<title>node9&#45;&gt;node6</title>
<path fill="none" stroke="black" d="M241,-320.31C241,-312.55 241,-303.18 241,-294.45"/>
<polygon fill="black" stroke="black" points="244.5,-294.53 241,-284.53 237.5,-294.53 244.5,-294.53"/>
</g>
<!-- node10 -->
<g id="node11" class="node">
<title>node10</title>
<path fill="none" stroke="black" d="M168.5,-283.5C168.5,-283.5 119.5,-283.5 119.5,-283.5 113.5,-283.5 107.5,-277.5 107.5,-271.5 107.5,-271.5 107.5,-259.5 107.5,-259.5 107.5,-253.5 113.5,-247.5 119.5,-247.5 119.5,-247.5 168.5,-247.5 168.5,-247.5 174.5,-247.5 180.5,-253.5 180.5,-259.5 180.5,-259.5 180.5,-271.5 180.5,-271.5 180.5,-277.5 174.5,-283.5 168.5,-283.5"/>
<text text-anchor="middle" x="144" y="-261.62" font-family="Times New Roman,serif" font-size="10.00" fill="#0000ff">PossibleTraits</text>
</g>
<!-- node11 -->
<g id="node12" class="node">
<title>node11</title>
<path fill="#000000" stroke="black" d="M159,-201C159,-201 129,-201 129,-201 123,-201 117,-195 117,-189 117,-189 117,-177 117,-177 117,-171 123,-165 129,-165 129,-165 159,-165 159,-165 165,-165 171,-171 171,-177 171,-177 171,-189 171,-189 171,-195 165,-201 159,-201"/>
<text text-anchor="middle" x="144" y="-180.65" font-family="Times New Roman,serif" font-size="8.00" fill="#ffffff">Discrete</text>
</g>
<!-- node10&#45;&gt;node11 -->
<g id="edge10" class="edge">
<title>node10&#45;&gt;node11</title>
<path fill="none" stroke="black" d="M144,-247.03C144,-236.91 144,-223.91 144,-212.35"/>
<polygon fill="black" stroke="black" points="147.5,-212.43 144,-202.43 140.5,-212.43 147.5,-212.43"/>
<text text-anchor="middle" x="153.38" y="-221.9" font-family="Times New Roman,serif" font-size="8.00" fill="#d3d3d3">probs</text>
</g>
<!-- node11&#45;&gt;node4 -->
<g id="edge11" class="edge">
<title>node11&#45;&gt;node4</title>
<path fill="none" stroke="black" d="M144,-164.53C144,-154.41 144,-141.41 144,-129.85"/>
<polygon fill="black" stroke="black" points="147.5,-129.93 144,-119.93 140.5,-129.93 147.5,-129.93"/>
</g>
<!-- node12 -->
<g id="node13" class="node">
<title>node12</title>
<path fill="none" stroke="none" d="M163.25,-439C163.25,-439 124.75,-439 124.75,-439 118.75,-439 112.75,-433 112.75,-427 112.75,-427 112.75,-415 112.75,-415 112.75,-409 118.75,-403 124.75,-403 124.75,-403 163.25,-403 163.25,-403 169.25,-403 175.25,-409 175.25,-415 175.25,-415 175.25,-427 175.25,-427 175.25,-433 169.25,-439 163.25,-439"/>
<text text-anchor="middle" x="144" y="-417.12" font-family="Times New Roman,serif" font-size="10.00" fill="#0000ff">TraitsPriors</text>
</g>
<!-- node13 -->
<g id="node14" class="node">
<title>node13</title>
<path fill="#000000" stroke="black" d="M159,-356.5C159,-356.5 129,-356.5 129,-356.5 123,-356.5 117,-350.5 117,-344.5 117,-344.5 117,-332.5 117,-332.5 117,-326.5 123,-320.5 129,-320.5 129,-320.5 159,-320.5 159,-320.5 165,-320.5 171,-326.5 171,-332.5 171,-332.5 171,-344.5 171,-344.5 171,-350.5 165,-356.5 159,-356.5"/>
<text text-anchor="middle" x="144" y="-336.15" font-family="Times New Roman,serif" font-size="8.00" fill="#ffffff">Random</text>
</g>
<!-- node12&#45;&gt;node13 -->
<g id="edge12" class="edge">
<title>node12&#45;&gt;node13</title>
<path fill="none" stroke="black" d="M144,-403.32C144,-393.06 144,-379.64 144,-367.76"/>
<polygon fill="black" stroke="black" points="147.5,-367.99 144,-357.99 140.5,-367.99 147.5,-367.99"/>
<text text-anchor="middle" x="150" y="-377.4" font-family="Times New Roman,serif" font-size="8.00" fill="#d3d3d3">dist</text>
</g>
<!-- node13&#45;&gt;node10 -->
<g id="edge13" class="edge">
<title>node13&#45;&gt;node10</title>
<path fill="none" stroke="black" d="M144,-320.31C144,-312.55 144,-303.18 144,-294.45"/>
<polygon fill="black" stroke="black" points="147.5,-294.53 144,-284.53 140.5,-294.53 147.5,-294.53"/>
</g>
<!-- node14 -->
<g id="node15" class="node">
<title>node14</title>
<path fill="none" stroke="black" d="M60.25,-283.5C60.25,-283.5 21.75,-283.5 21.75,-283.5 15.75,-283.5 9.75,-277.5 9.75,-271.5 9.75,-271.5 9.75,-259.5 9.75,-259.5 9.75,-253.5 15.75,-247.5 21.75,-247.5 21.75,-247.5 60.25,-247.5 60.25,-247.5 66.25,-247.5 72.25,-253.5 72.25,-259.5 72.25,-259.5 72.25,-271.5 72.25,-271.5 72.25,-277.5 66.25,-283.5 60.25,-283.5"/>
<text text-anchor="middle" x="41" y="-261.62" font-family="Times New Roman,serif" font-size="10.00" fill="#0000ff">PossibleRel</text>
</g>
<!-- node15 -->
<g id="node16" class="node">
<title>node15</title>
<path fill="#000000" stroke="black" d="M56,-201C56,-201 26,-201 26,-201 20,-201 14,-195 14,-189 14,-189 14,-177 14,-177 14,-171 20,-165 26,-165 26,-165 56,-165 56,-165 62,-165 68,-171 68,-177 68,-177 68,-189 68,-189 68,-195 62,-201 56,-201"/>
<text text-anchor="middle" x="41" y="-180.65" font-family="Times New Roman,serif" font-size="8.00" fill="#ffffff">Discrete</text>
</g>
<!-- node14&#45;&gt;node15 -->
<g id="edge14" class="edge">
<title>node14&#45;&gt;node15</title>
<path fill="none" stroke="black" d="M41,-247.03C41,-236.91 41,-223.91 41,-212.35"/>
<polygon fill="black" stroke="black" points="44.5,-212.43 41,-202.43 37.5,-212.43 44.5,-212.43"/>
<text text-anchor="middle" x="50.38" y="-221.9" font-family="Times New Roman,serif" font-size="8.00" fill="#d3d3d3">probs</text>
</g>
<!-- node15&#45;&gt;node3 -->
<g id="edge15" class="edge">
<title>node15&#45;&gt;node3</title>
<path fill="none" stroke="black" d="M41,-164.53C41,-154.27 41,-141.05 41,-129.38"/>
<polygon fill="black" stroke="black" points="44.5,-129.38 41,-119.38 37.5,-129.38 44.5,-129.38"/>
</g>
<!-- node16 -->
<g id="node17" class="node">
<title>node16</title>
<path fill="none" stroke="none" d="M67.75,-439C67.75,-439 14.25,-439 14.25,-439 8.25,-439 2.25,-433 2.25,-427 2.25,-427 2.25,-415 2.25,-415 2.25,-409 8.25,-403 14.25,-403 14.25,-403 67.75,-403 67.75,-403 73.75,-403 79.75,-409 79.75,-415 79.75,-415 79.75,-427 79.75,-427 79.75,-433 73.75,-439 67.75,-439"/>
<text text-anchor="middle" x="41" y="-417.12" font-family="Times New Roman,serif" font-size="10.00" fill="#0000ff">RelStatusPriors</text>
</g>
<!-- node17 -->
<g id="node18" class="node">
<title>node17</title>
<path fill="#000000" stroke="black" d="M56,-356.5C56,-356.5 26,-356.5 26,-356.5 20,-356.5 14,-350.5 14,-344.5 14,-344.5 14,-332.5 14,-332.5 14,-326.5 20,-320.5 26,-320.5 26,-320.5 56,-320.5 56,-320.5 62,-320.5 68,-326.5 68,-332.5 68,-332.5 68,-344.5 68,-344.5 68,-350.5 62,-356.5 56,-356.5"/>
<text text-anchor="middle" x="41" y="-336.15" font-family="Times New Roman,serif" font-size="8.00" fill="#ffffff">Random</text>
</g>
<!-- node16&#45;&gt;node17 -->
<g id="edge16" class="edge">
<title>node16&#45;&gt;node17</title>
<path fill="none" stroke="black" d="M41,-403.32C41,-393.06 41,-379.64 41,-367.76"/>
<polygon fill="black" stroke="black" points="44.5,-367.99 41,-357.99 37.5,-367.99 44.5,-367.99"/>
<text text-anchor="middle" x="47" y="-377.4" font-family="Times New Roman,serif" font-size="8.00" fill="#d3d3d3">dist</text>
</g>
<!-- node17&#45;&gt;node14 -->
<g id="edge17" class="edge">
<title>node17&#45;&gt;node14</title>
<path fill="none" stroke="black" d="M41,-320.31C41,-312.55 41,-303.18 41,-294.45"/>
<polygon fill="black" stroke="black" points="44.5,-294.53 41,-284.53 37.5,-294.53 44.5,-294.53"/>
</g>
<!-- node18 -->
<g id="node19" class="node">
<title>node18</title>
<path fill="none" stroke="none" d="M509.88,-439C509.88,-439 364.12,-439 364.12,-439 358.12,-439 352.12,-433 352.12,-427 352.12,-427 352.12,-415 352.12,-415 352.12,-409 358.12,-403 364.12,-403 364.12,-403 509.88,-403 509.88,-403 515.88,-403 521.88,-409 521.88,-415 521.88,-415 521.88,-427 521.88,-427 521.88,-433 515.88,-439 509.88,-439"/>
<text text-anchor="middle" x="437" y="-417.12" font-family="Times New Roman,serif" font-size="10.00" fill="#0000ff">DialogueCPTPrior[Events][Traits][Rel]</text>
</g>
<!-- node19 -->
<g id="node20" class="node">
<title>node19</title>
<path fill="#000000" stroke="black" d="M452,-356.5C452,-356.5 422,-356.5 422,-356.5 416,-356.5 410,-350.5 410,-344.5 410,-344.5 410,-332.5 410,-332.5 410,-326.5 416,-320.5 422,-320.5 422,-320.5 452,-320.5 452,-320.5 458,-320.5 464,-326.5 464,-332.5 464,-332.5 464,-344.5 464,-344.5 464,-350.5 458,-356.5 452,-356.5"/>
<text text-anchor="middle" x="437" y="-336.15" font-family="Times New Roman,serif" font-size="8.00" fill="#ffffff">Random</text>
</g>
<!-- node18&#45;&gt;node19 -->
<g id="edge18" class="edge">
<title>node18&#45;&gt;node19</title>
<path fill="none" stroke="black" d="M437,-403.32C437,-393.06 437,-379.64 437,-367.76"/>
<polygon fill="black" stroke="black" points="440.5,-367.99 437,-357.99 433.5,-367.99 440.5,-367.99"/>
<text text-anchor="middle" x="443" y="-377.4" font-family="Times New Roman,serif" font-size="8.00" fill="#d3d3d3">dist</text>
</g>
<!-- node20 -->
<g id="node21" class="node">
<title>node20</title>
<path fill="none" stroke="black" d="M500.5,-283.5C500.5,-283.5 373.5,-283.5 373.5,-283.5 367.5,-283.5 361.5,-277.5 361.5,-271.5 361.5,-271.5 361.5,-259.5 361.5,-259.5 361.5,-253.5 367.5,-247.5 373.5,-247.5 373.5,-247.5 500.5,-247.5 500.5,-247.5 506.5,-247.5 512.5,-253.5 512.5,-259.5 512.5,-259.5 512.5,-271.5 512.5,-271.5 512.5,-277.5 506.5,-283.5 500.5,-283.5"/>
<text text-anchor="middle" x="437" y="-261.62" font-family="Times New Roman,serif" font-size="10.00" fill="#0000ff">DialogueCPT[Events][Traits][Rel]</text>
</g>
<!-- node19&#45;&gt;node20 -->
<g id="edge19" class="edge">
<title>node19&#45;&gt;node20</title>
<path fill="none" stroke="black" d="M437,-320.31C437,-312.55 437,-303.18 437,-294.45"/>
<polygon fill="black" stroke="black" points="440.5,-294.53 437,-284.53 433.5,-294.53 440.5,-294.53"/>
</g>
<!-- node20&#45;&gt;node0 -->
<g id="edge20" class="edge">
<title>node20&#45;&gt;node0</title>
<path fill="none" stroke="black" d="M437,-247.03C437,-233.53 437,-214.93 437,-201.43"/>
</g>
</g>
</svg>
